<?xml version="1.0" encoding="UTF-8"?>
<svg xmlns="http://www.w3.org/2000/svg" xmlns:xlink="http://www.w3.org/1999/xlink" width="150px" height="89px" viewBox="0 0 150 89" version="1.1">
<g id="surface1">
<path style=" stroke:none;fill-rule:nonzero;fill:rgb(0%,0%,0%);fill-opacity:1;" d="M 96 32.53125 C 92.25 32.925781 89.511719 33.6875 89.027344 34.441406 C 88.851562 34.710938 88.722656 36.445312 88.722656 38.273438 C 88.761719 40.765625 88.851562 41.253906 89.113281 40.273438 C 89.296875 39.515625 89.472656 37.914062 89.511719 36.621094 L 89.558594 34.351562 L 91.898438 33.730469 C 93.136719 33.421875 96.398438 33.152344 99.046875 33.152344 C 103.589844 33.152344 104.027344 33.238281 106.238281 34.441406 C 111.796875 37.558594 112.808594 44.765625 108.308594 49.261719 L 106.453125 51.175781 L 108.574219 55.046875 C 109.761719 57.140625 110.691406 58.960938 110.601562 59.007812 C 110.25 59.359375 103.589844 60.5625 103.101562 60.386719 C 102.796875 60.296875 102 58.472656 101.25 56.339844 C 99.972656 52.644531 99.886719 52.507812 98.558594 52.507812 C 97.238281 52.507812 97.148438 52.597656 96.886719 54.558594 C 96.75 55.714844 96.613281 57.492188 96.613281 58.558594 L 96.613281 60.523438 L 88.898438 60.523438 L 89.027344 51.53125 C 89.113281 46.59375 89.074219 42.632812 88.988281 42.71875 C 88.851562 42.855469 88.636719 47.082031 88.453125 52.15625 L 88.148438 61.410156 L 92.601562 61.410156 C 97.722656 61.410156 97.410156 61.722656 97.589844 56.289062 C 97.722656 53.53125 97.808594 53.179688 98.601562 53.179688 C 99.261719 53.179688 99.75 53.980469 100.898438 56.960938 C 101.648438 59.054688 102.351562 60.921875 102.441406 61.140625 C 102.613281 61.5 110.953125 59.984375 111.441406 59.496094 C 111.574219 59.359375 110.738281 57.492188 109.5 55.3125 L 107.296875 51.398438 L 109.191406 49.347656 C 111.351562 47.035156 111.839844 45.390625 111.527344 41.472656 C 111.308594 38.222656 109.675781 35.691406 106.851562 34.128906 C 105.046875 33.152344 103.851562 32.796875 100.363281 32.308594 C 99.886719 32.21875 97.941406 32.351562 96 32.53125 Z M 96 32.53125 "/>
<path style=" stroke:none;fill-rule:nonzero;fill:rgb(0%,0%,0%);fill-opacity:1;" d="M 50.113281 34.53125 C 49.988281 35.691406 49.851562 40.582031 49.851562 45.4375 C 49.851562 54.023438 49.5 56.027344 48.660156 52.597656 C 48.441406 51.707031 47.074219 46.902344 45.613281 41.964844 L 43.011719 32.972656 L 37.5 33.238281 C 34.453125 33.375 31.941406 33.550781 31.851562 33.597656 C 31.675781 33.730469 23.953125 59.851562 24.046875 59.984375 C 24.136719 60.074219 26.472656 60.386719 29.296875 60.699219 C 34.941406 61.324219 34.453125 61.5 35.074219 58.382812 C 35.386719 56.960938 35.425781 56.914062 37.410156 57.050781 C 39.398438 57.179688 39.488281 57.226562 39.972656 58.960938 C 40.546875 61.097656 41.25 61.277344 45.972656 60.523438 C 48.398438 60.164062 49.191406 60.164062 49.453125 60.5625 C 49.761719 61.097656 54.351562 61.011719 63.222656 60.25 L 66.613281 59.945312 L 66.613281 58.027344 C 66.613281 56.960938 66.75 56.074219 66.886719 56.074219 C 67.238281 56.074219 68.027344 57.003906 68.863281 58.292969 C 69.261719 58.917969 70.675781 60.03125 71.953125 60.738281 C 74.863281 62.300781 78.886719 62.523438 82.238281 61.234375 C 84.75 60.25 84.972656 59.761719 85.363281 54.421875 L 85.675781 50.375 L 82.722656 51.890625 C 79.546875 53.53125 78.703125 53.667969 77.074219 52.910156 C 75.796875 52.332031 74.691406 50.726562 75.527344 50.6875 C 75.839844 50.6875 78.796875 50.328125 82.058594 49.886719 L 88.011719 49.125 L 88.148438 46.101562 C 88.5 38.359375 84.351562 32.839844 78.089844 32.75 C 70.941406 32.660156 65.691406 38.761719 65.558594 47.257812 L 65.511719 50.726562 L 62.558594 50.726562 C 59.953125 50.726562 59.558594 50.640625 59.558594 49.925781 C 59.558594 49.484375 59.863281 45.566406 60.222656 41.207031 C 60.574219 36.84375 60.796875 33.109375 60.613281 32.886719 C 60.488281 32.660156 58.148438 32.484375 55.410156 32.484375 L 50.425781 32.484375 Z M 46.058594 45.96875 C 47.953125 52.507812 49.410156 58.253906 49.324219 58.652344 C 49.191406 59.230469 48.351562 59.496094 45.222656 59.898438 C 43.011719 60.164062 41.160156 60.296875 41.027344 60.210938 C 40.898438 60.121094 40.589844 59.183594 40.363281 58.160156 L 39.886719 56.289062 L 37.410156 56.160156 C 34.722656 56.027344 34.808594 55.9375 34.191406 59.09375 C 33.886719 60.523438 33.796875 60.5625 32.296875 60.34375 C 31.363281 60.210938 29.296875 59.984375 27.660156 59.808594 C 25.722656 59.632812 24.703125 59.359375 24.839844 59.007812 C 24.925781 58.742188 26.558594 53.222656 28.453125 46.726562 C 30.351562 40.226562 32.074219 34.710938 32.296875 34.488281 C 32.691406 34.039062 41.910156 33.421875 42.398438 33.824219 C 42.527344 33.953125 44.203125 39.425781 46.058594 45.96875 Z M 60 34.128906 C 60 34.578125 59.691406 38.3125 59.339844 42.496094 C 58.988281 46.632812 58.675781 50.328125 58.675781 50.597656 C 58.675781 51 59.648438 51.175781 62.160156 51.175781 L 65.691406 51.175781 L 66 53.179688 C 66.136719 54.289062 66.136719 56.074219 66 57.140625 C 65.648438 59.40625 65.738281 59.359375 58.453125 59.851562 C 56.296875 59.984375 53.558594 60.210938 52.410156 60.34375 L 50.296875 60.609375 L 50.296875 52.644531 C 50.296875 48.28125 50.425781 42.183594 50.601562 39.027344 L 50.863281 33.375 L 55.453125 33.375 C 59.472656 33.375 60 33.464844 60 34.128906 Z M 81.886719 34.21875 C 84 35.203125 85.722656 37.292969 86.691406 40.003906 C 87.441406 42.144531 87.613281 48.507812 86.910156 48.507812 C 86.296875 48.507812 76.722656 49.839844 75.351562 50.109375 C 74.160156 50.328125 74.160156 50.375 74.777344 51.617188 C 76.058594 54.15625 78.613281 54.511719 82.453125 52.730469 C 83.777344 52.105469 84.886719 51.664062 84.925781 51.707031 C 84.972656 51.800781 84.796875 53.582031 84.574219 55.671875 C 84.136719 59.496094 84.136719 59.542969 82.546875 60.296875 C 80.472656 61.277344 76.589844 61.636719 74.339844 61.011719 C 63.75 58.117188 63.136719 38.9375 73.453125 34.21875 C 75.75 33.152344 79.546875 33.152344 81.886719 34.21875 Z M 81.886719 34.21875 "/>
<path style=" stroke:none;fill-rule:nonzero;fill:rgb(0%,0%,0%);fill-opacity:1;" d="M 36.488281 46.144531 C 35.472656 50.863281 35.472656 50.726562 37.546875 50.726562 C 39.046875 50.726562 39.308594 50.597656 39.089844 49.925781 C 39 49.527344 38.648438 47.96875 38.386719 46.503906 C 37.589844 42.40625 37.277344 42.367188 36.488281 46.144531 Z M 38.160156 48.59375 C 38.472656 50.152344 38.386719 50.285156 37.5 50.285156 C 36.574219 50.285156 36.527344 50.152344 36.796875 48.59375 C 36.925781 47.707031 37.058594 46.632812 37.058594 46.28125 C 37.101562 45.164062 37.808594 46.679688 38.160156 48.59375 Z M 38.160156 48.59375 "/>
<path style=" stroke:none;fill-rule:nonzero;fill:rgb(0%,0%,0%);fill-opacity:1;" d="M 75.703125 42.054688 C 74.738281 43.121094 73.851562 45.253906 74.25 45.65625 C 74.339844 45.742188 75.703125 45.703125 77.339844 45.523438 L 80.296875 45.253906 L 80.296875 43.835938 C 80.296875 41.070312 77.558594 40.003906 75.703125 42.054688 Z M 79.761719 43.386719 C 79.988281 44.453125 79.101562 44.949219 76.898438 44.949219 C 74.648438 44.949219 74.511719 44.453125 76.324219 42.632812 C 77.558594 41.382812 77.738281 41.339844 78.660156 41.964844 C 79.191406 42.320312 79.722656 42.945312 79.761719 43.386719 Z M 79.761719 43.386719 "/>
<path style=" stroke:none;fill-rule:nonzero;fill:rgb(0%,0%,0%);fill-opacity:1;" d="M 5.074219 33.421875 C 3.136719 33.640625 1.238281 33.863281 0.839844 33.910156 C 0.261719 34.039062 0.796875 36.042969 3.839844 45.613281 C 5.863281 51.976562 7.808594 58.253906 8.203125 59.585938 L 8.910156 61.988281 L 13.808594 61.722656 C 16.5 61.542969 18.839844 61.277344 19.011719 61.097656 C 19.363281 60.699219 26.027344 35.113281 26.027344 34.175781 C 26.027344 33.640625 25.148438 33.464844 21.527344 33.285156 C 19.011719 33.152344 16.941406 33.109375 16.851562 33.152344 C 16.761719 33.238281 16.011719 36.355469 15.175781 40.09375 C 14.339844 43.875 13.546875 46.992188 13.453125 47.082031 C 13.277344 47.257812 13.011719 46.28125 11.160156 38.488281 C 10.277344 34.710938 9.75 33.152344 9.261719 33.109375 C 8.910156 33.0625 7.011719 33.199219 5.074219 33.421875 Z M 11.203125 41.519531 C 12.175781 45.703125 13.058594 49.4375 13.238281 49.75 C 13.363281 50.0625 14.160156 47.347656 14.953125 43.746094 C 15.75 40.140625 16.589844 36.402344 16.808594 35.46875 L 17.25 33.824219 L 20.425781 33.863281 C 26.074219 33.953125 25.941406 32.574219 22.011719 47.570312 C 20.113281 54.734375 18.527344 60.652344 18.441406 60.738281 C 18.351562 60.785156 16.324219 60.964844 13.851562 61.097656 L 9.398438 61.324219 L 5.296875 48.324219 C 3.046875 41.207031 1.101562 35.15625 1.011719 34.84375 C 0.796875 34.3125 2.386719 34.089844 7.277344 33.910156 L 9.488281 33.824219 Z M 11.203125 41.519531 "/>
<path style=" stroke:none;fill-rule:nonzero;fill:rgb(0%,0%,0%);fill-opacity:1;" d="M 133.808594 33.238281 C 131.558594 33.328125 129.703125 33.464844 129.703125 33.550781 C 129.703125 33.597656 128.296875 38.359375 126.613281 44.097656 C 124.898438 49.839844 123.574219 54.824219 123.613281 55.175781 C 123.703125 55.535156 125.160156 51.085938 126.839844 45.214844 C 129.441406 36.308594 130.058594 34.578125 130.898438 34.265625 C 131.386719 34.039062 133.761719 33.824219 136.148438 33.777344 L 140.472656 33.6875 L 144.089844 46.328125 C 146.511719 54.78125 147.574219 59.054688 147.261719 59.230469 C 146.863281 59.496094 141.308594 60.210938 139.191406 60.296875 C 138.972656 60.296875 138.574219 59.40625 138.308594 58.292969 L 137.824219 56.289062 L 135.351562 56.160156 C 132.660156 56.027344 132.75 55.9375 132.136719 59.09375 C 131.824219 60.523438 131.738281 60.5625 130.238281 60.34375 C 129.308594 60.210938 127.238281 59.984375 125.601562 59.808594 C 123.222656 59.585938 122.648438 59.40625 122.824219 58.871094 C 123.488281 57.179688 123.660156 55.9375 123.175781 56.25 C 122.910156 56.425781 122.558594 57.269531 122.386719 58.117188 C 121.761719 61.5 121.761719 58.832031 122.425781 47.128906 C 122.777344 40.40625 123.089844 34.578125 123.089844 34.175781 C 123.089844 33.464844 122.601562 33.421875 117.925781 33.6875 C 115.058594 33.824219 112.546875 34.089844 112.363281 34.265625 C 112.191406 34.398438 112.191406 37.246094 112.410156 40.539062 L 112.808594 46.503906 L 112.898438 40.675781 L 112.941406 34.800781 L 114.308594 34.53125 C 116.25 34.128906 122.738281 34.175781 122.511719 34.578125 C 122.386719 34.800781 122.027344 40.363281 121.722656 47.035156 C 121.410156 53.710938 121.058594 59.320312 120.925781 59.542969 C 120.796875 59.761719 119.027344 60.074219 117.046875 60.25 L 113.386719 60.5625 L 113.339844 54.871094 C 113.339844 51.753906 113.113281 48.773438 112.898438 48.28125 C 112.636719 47.707031 112.546875 49.039062 112.722656 52.242188 C 112.851562 54.910156 112.941406 57.980469 112.941406 59.054688 L 112.941406 60.964844 L 116.738281 60.964844 C 118.808594 60.964844 120.839844 60.785156 121.277344 60.5625 C 121.761719 60.296875 123.925781 60.34375 127.191406 60.699219 C 132.886719 61.324219 132.398438 61.5 133.011719 58.382812 C 133.324219 56.960938 133.363281 56.914062 135.351562 57.050781 C 137.339844 57.179688 137.425781 57.226562 137.863281 58.917969 C 138.175781 59.898438 138.613281 60.785156 138.972656 60.875 C 139.546875 61.097656 148.675781 60.074219 148.675781 59.808594 C 148.675781 59.71875 147.046875 54.109375 145.101562 47.304688 C 143.113281 40.492188 141.398438 34.488281 141.308594 33.910156 C 141.089844 33.109375 140.824219 32.925781 139.453125 33.019531 C 138.574219 33.0625 136.011719 33.199219 133.808594 33.238281 Z M 133.808594 33.238281 "/>
<path style=" stroke:none;fill-rule:nonzero;fill:rgb(0%,0%,0%);fill-opacity:1;" d="M 97.5 40.804688 C 97.5 41.742188 97.363281 43.5625 97.191406 44.902344 L 96.925781 47.304688 L 98.558594 47.035156 C 102.046875 46.457031 103.675781 44.324219 102.75 41.519531 C 102.175781 39.78125 101.25 39.160156 99.089844 39.160156 C 97.546875 39.160156 97.5 39.203125 97.5 40.804688 Z M 101.472656 40.492188 C 102.796875 41.832031 102.660156 44.1875 101.203125 45.34375 C 100.546875 45.878906 99.574219 46.28125 99 46.28125 C 97.988281 46.28125 97.941406 46.144531 97.941406 43.257812 C 97.941406 41.566406 98.074219 40.050781 98.25 39.914062 C 98.824219 39.292969 100.636719 39.652344 101.472656 40.492188 Z M 101.472656 40.492188 "/>
<path style=" stroke:none;fill-rule:nonzero;fill:rgb(0%,0%,0%);fill-opacity:1;" d="M 134.425781 46.144531 C 133.410156 50.863281 133.410156 50.726562 135.488281 50.726562 C 136.988281 50.726562 137.25 50.597656 137.027344 49.925781 C 136.941406 49.527344 136.589844 47.96875 136.324219 46.503906 C 135.527344 42.40625 135.222656 42.367188 134.425781 46.144531 Z M 136.101562 48.59375 C 136.410156 50.152344 136.324219 50.285156 135.441406 50.285156 C 134.511719 50.285156 134.472656 50.152344 134.738281 48.59375 C 134.863281 47.707031 135 46.632812 135 46.28125 C 135.046875 45.164062 135.75 46.679688 136.101562 48.59375 Z M 136.101562 48.59375 "/>
</g>
</svg>
